name analog
datacolumns 19
datarows 42
range 0.5640000000000001 0.5845
endheader
time	ground_force_vx	ground_force_vy	ground_force_vz	ground_force_px	ground_force_py	ground_force_pz	l_ground_force_vx	l_ground_force_vy	l_ground_force_vz	l_ground_force_px	l_ground_force_py	l_ground_force_pz	ground_torque_x	ground_torque_y	ground_torque_z	l_ground_torque_x	l_ground_torque_y	l_ground_torque_z
0.5640000000000001	-0.0	-0.0	-0.0	5.963125228881836	36.06988525390625	-301.09649658203125	16.145362854003906	-44.1470832824707	-324.3846740722656	-0.0	-0.0	-0.0	-0.0	-0.0	-0.0	93901.5859375	-40921.703125	11064.9580078125
0.5645	-0.0	-0.0	-0.0	6.291900634765625	37.06424331665039	-303.0838623046875	16.555627822875977	-44.21602249145508	-328.442626953125	-0.0	-0.0	-0.0	-0.0	-0.0	-0.0	95162.421875	-41837.70703125	10969.740234375
0.5650000000000001	-0.0	-0.0	-0.0	6.629653453826904	38.21387100219727	-305.4450988769531	17.229196548461914	-44.76527786254883	-331.9671936035156	-0.0	-0.0	-0.0	-0.0	-0.0	-0.0	96424.7890625	-42623.0078125	11218.53125
0.5655	-0.0	-0.0	-0.0	6.686022758483887	39.34415817260742	-308.7538757324219	17.705610275268555	-45.36963272094727	-335.644287109375	-0.0	-0.0	-0.0	-0.0	-0.0	-0.0	97715.078125	-43351.90234375	11367.0498046875
0.5660000000000001	-0.0	-0.0	-0.0	6.023983001708984	40.0195541381836	-311.3929748535156	17.672388076782227	-46.21110153198242	-340.6621398925781	-0.0	-0.0	-0.0	-0.0	-0.0	-0.0	98963.78125	-44059.609375	11571.4755859375
0.5665	-0.0	-0.0	-0.0	6.197934627532959	40.690223693847656	-312.15509033203125	18.157758712768555	-46.91756439208984	-346.8916931152344	-0.0	-0.0	-0.0	-0.0	-0.0	-0.0	99795.828125	-45001.7578125	11822.9287109375
0.5670000000000001	-0.0	-0.0	-0.0	6.047968864440918	41.85880279541016	-315.0364990234375	18.73198699951172	-47.354373931884766	-349.92333984375	-0.0	-0.0	-0.0	-0.0	-0.0	-0.0	101177.3359375	-45737.60546875	11985.56640625
0.5675	-0.0	-0.0	-0.0	6.483948707580566	42.561744689941406	-318.04638671875	19.829071044921875	-48.16769409179688	-352.93701171875	-0.0	-0.0	-0.0	-0.0	-0.0	-0.0	102454.6015625	-46245.578125	12239.0244140625
0.5680000000000001	-0.0	-0.0	-0.0	6.633840560913086	43.83793258666992	-320.7587585449219	20.506267547607425	-48.5909423828125	-357.54803466796875	-0.0	-0.0	-0.0	-0.0	-0.0	-0.0	103464.3515625	-47097.9296875	12654.6669921875
0.5685	-0.0	-0.0	-0.0	7.315261840820312	44.9253044128418	-324.8125305175781	21.826902389526367	-48.89809036254883	-361.4989318847656	-0.0	-0.0	-0.0	-0.0	-0.0	-0.0	104574.8671875	-47547.41015625	13125.400390625
0.5690000000000001	-0.0	-0.0	-0.0	7.390164375305176	45.89122009277344	-328.5273132324219	22.358949661254883	-50.36126327514648	-365.1569213867188	-0.0	-0.0	-0.0	-0.0	-0.0	-0.0	105783.3828125	-48438.4921875	13581.0615234375
0.5695	-0.0	-0.0	-0.0	7.55420446395874	46.54040145874024	-331.87554931640625	23.03643798828125	-51.3927001953125	-368.8299865722656	-0.0	-0.0	-0.0	-0.0	-0.0	-0.0	106951.7734375	-48853.73046875	13712.8583984375
0.5700000000000001	-0.0	-0.0	-0.0	7.404472351074219	47.2564582824707	-336.63739013671875	22.933467864990234	-52.1839714050293	-374.416015625	-0.0	-0.0	-0.0	-0.0	-0.0	-0.0	108042.5234375	-49895.82421875	14263.11328125
0.5705	-0.0	-0.0	-0.0	7.6721038818359375	48.21955108642578	-342.1852722167969	22.841405868530277	-53.27216339111328	-377.6571960449219	-0.0	-0.0	-0.0	-0.0	-0.0	-0.0	109567.953125	-50628.3359375	14272.2001953125
0.5710000000000001	-0.0	-0.0	-0.0	7.72987699508667	48.99541091918945	-347.0144348144531	22.518259048461918	-54.49448394775391	-382.2528991699219	-0.0	-0.0	-0.0	-0.0	-0.0	-0.0	111046.4140625	-51448.04296875	14389.2333984375
0.5715	-0.0	-0.0	-0.0	7.864994049072266	49.5444450378418	-350.6408996582031	22.41234588623047	-55.54295349121094	-386.7473754882813	-0.0	-0.0	-0.0	-0.0	-0.0	-0.0	112232.0625	-52250.34375	14462.572265625
0.5720000000000001	-0.0	-0.0	-0.0	8.325589179992676	49.57099533081055	-356.35858154296875	22.458171844482425	-56.4401969909668	-391.5223083496094	-0.0	-0.0	-0.0	-0.0	-0.0	-0.0	113164.5390625	-52614.3203125	14744.6650390625
0.5725	-0.0	-0.0	-0.0	8.460456848144531	50.64059829711914	-360.9000854492188	22.2976016998291	-56.67147064208984	-393.9092102050781	-0.0	-0.0	-0.0	-0.0	-0.0	-0.0	113981.875	-53264.01171875	14720.4501953125
0.5730000000000001	-0.0	-0.0	-0.0	8.251060485839844	50.893463134765625	-365.1304016113281	22.134490966796875	-57.12979507446289	-395.3529968261719	-0.0	-0.0	-0.0	-0.0	-0.0	-0.0	114866.4453125	-53610.61328125	14491.7294921875
0.5735	-0.0	-0.0	-0.0	8.1781644821167	51.29374694824219	-369.4903869628906	21.58768081665039	-57.05373764038086	-398.3820190429688	-0.0	-0.0	-0.0	-0.0	-0.0	-0.0	115613.6015625	-53707.625	14436.896484375
0.5740000000000001	-0.0	-0.0	-0.0	8.23525619506836	51.84464645385742	-374.0864868164063	21.009981155395508	-57.0251350402832	-400.83343505859375	-0.0	-0.0	-0.0	-0.0	-0.0	-0.0	115732.109375	-53932.375	14342.7099609375
0.5745	-0.0	-0.0	-0.0	8.222030639648438	52.4526252746582	-376.5527648925781	20.492191314697266	-56.90803909301758	-399.835693359375	-0.0	-0.0	-0.0	-0.0	-0.0	-0.0	116364.9140625	-54009.91015625	14293.337890625
0.5750000000000001	-0.0	-0.0	-0.0	8.073044776916504	53.21085357666016	-380.2623901367188	20.374408721923828	-57.320777893066406	-403.9112243652344	-0.0	-0.0	-0.0	-0.0	-0.0	-0.0	116589.7421875	-54479.734375	13946.390625
0.5755	-0.0	-0.0	-0.0	8.400524139404297	53.895240783691406	-383.7899475097656	19.930782318115234	-57.277252197265625	-403.6243286132813	-0.0	-0.0	-0.0	-0.0	-0.0	-0.0	116727.890625	-54486.1640625	13916.93359375
0.5760000000000001	-0.0	-0.0	-0.0	8.207366943359375	53.820011138916016	-385.3777770996094	19.4422607421875	-57.0110969543457	-403.040283203125	-0.0	-0.0	-0.0	-0.0	-0.0	-0.0	117308.6640625	-54677.46484375	13807.771484375
0.5765	-0.0	-0.0	-0.0	7.330060482025146	54.74127578735352	-389.4403076171875	19.50173759460449	-57.1587028503418	-404.9006652832031	-0.0	-0.0	-0.0	-0.0	-0.0	-0.0	117603.1484375	-54673.7265625	13649.7041015625
0.577	-0.0	-0.0	-0.0	7.062264442443848	54.85986328125	-391.8535461425781	18.89470863342285	-56.5995979309082	-406.00286865234375	-0.0	-0.0	-0.0	-0.0	-0.0	-0.0	118123.53125	-55046.453125	13471.6728515625
0.5775	-0.0	-0.0	-0.0	6.973291397094727	55.73622131347656	-394.91412353515625	19.23553276062012	-56.17259216308594	-409.3812255859375	-0.0	-0.0	-0.0	-0.0	-0.0	-0.0	118960.8046875	-55162.375	13298.7373046875
0.578	-0.0	-0.0	-0.0	6.854311943054199	55.54312896728516	-399.5047912597656	19.47217559814453	-55.87797546386719	-410.7775268554688	-0.0	-0.0	-0.0	-0.0	-0.0	-0.0	119385.296875	-55769.75	13185.2685546875
0.5785	-0.0	-0.0	-0.0	6.140591621398926	56.07755279541016	-402.7994079589844	19.338951110839844	-55.510231018066406	-412.1151428222656	-0.0	-0.0	-0.0	-0.0	-0.0	-0.0	119948.8671875	-55786.3203125	12928.2373046875
0.579	-0.0	-0.0	-0.0	5.279000282287598	56.58285140991211	-403.7415161132813	18.71797561645508	-55.068634033203125	-415.25689697265625	-0.0	-0.0	-0.0	-0.0	-0.0	-0.0	120509.828125	-55955.58203125	12913.0439453125
0.5795	-0.0	-0.0	-0.0	4.504748344421387	56.71689987182617	-405.6226196289063	18.407623291015625	-54.24455642700195	-415.1985778808594	-0.0	-0.0	-0.0	-0.0	-0.0	-0.0	120728.265625	-56428.28515625	12636.1943359375
0.58	-0.0	-0.0	-0.0	3.5834527015686035	56.89425659179688	-406.39111328125	17.949312210083008	-54.55369186401367	-416.4793701171875	-0.0	-0.0	-0.0	-0.0	-0.0	-0.0	121340.390625	-56395.03125	12334.3427734375
0.5805	-0.0	-0.0	-0.0	2.853533983230591	56.79232406616211	-408.1614685058594	17.505830764770508	-54.31784057617188	-415.8982543945313	-0.0	-0.0	-0.0	-0.0	-0.0	-0.0	121184.3203125	-56429.37890625	12126.4990234375
0.581	-0.0	-0.0	-0.0	2.0682945251464844	57.04345703125	-409.74847412109375	17.07725715637207	-54.08259963989258	-415.6666870117188	-0.0	-0.0	-0.0	-0.0	-0.0	-0.0	121192.796875	-56065.4609375	11972.986328125
0.5815	-0.0	-0.0	-0.0	2.0080249309539795	57.16282653808594	-410.86181640625	16.81015396118164	-53.71448516845703	-415.5451049804688	-0.0	-0.0	-0.0	-0.0	-0.0	-0.0	120776.2421875	-55905.71484375	11740.2666015625
0.582	-0.0	-0.0	-0.0	1.7690426111221311	57.16110229492188	-412.51416015625	16.662626266479492	-54.31784057617188	-412.8152770996094	-0.0	-0.0	-0.0	-0.0	-0.0	-0.0	120301.859375	-55556.5234375	11700.30078125
0.5825	-0.0	-0.0	-0.0	1.3229676485061646	57.63508987426758	-411.6274108886719	15.922870635986328	-54.09774398803711	-410.892333984375	-0.0	-0.0	-0.0	-0.0	-0.0	-0.0	119396.6015625	-54976.84765625	11522.302734375
0.583	-0.0	-0.0	-0.0	1.425220251083374	58.05216979980469	-412.9879455566406	15.46414852142334	-54.33283233642578	-408.15826416015625	-0.0	-0.0	-0.0	-0.0	-0.0	-0.0	118254.15625	-54557.28125	11339.484375
0.5835	-0.0	-0.0	-0.0	0.8052611351013184	58.12827301025391	-415.167724609375	14.284300804138184	-54.77262115478516	-404.1539916992188	-0.0	-0.0	-0.0	-0.0	-0.0	-0.0	117514.5703125	-53848.7734375	11174.5419921875
0.584	-0.0	-0.0	-0.0	0.4919243454933166	59.06290817260742	-416.44964599609375	13.572750091552734	-54.949127197265625	-402.22265625	-0.0	-0.0	-0.0	-0.0	-0.0	-0.0	116720.9921875	-53586.60546875	10991.619140625
0.5845	-0.0	-0.0	-0.0	0.6704492568969727	59.31491470336914	-417.58001708984375	13.393091201782228	-54.62807846069336	-399.89794921875	-0.0	-0.0	-0.0	-0.0	-0.0	-0.0	116150.984375	-52977.09765625	10778.154296875
